# xmcd
#
# Track frame offsets:
# 150
# 32769
# 50661
# 66740
# 79878
# 86782
# 96960
# 105467
#
# Disc length: 1521 seconds
#
# Revision: 0
# Processed by: cddbd v1.5.2PL0 Copyright (c) Steve Scherf et al.
# Submitted via: Audion 3.0.2 (http://www.panic.com/audion/)
#
DISCID=6d05ef08
DTITLE=Taylor Hicks - Taylor Hicks
DYEAR=1900
DGENRE=
TTITLE0=Georgia on my  mind
TTITLE1=It's a soul thing
TTITLE2=Hell of a day
TTITLE3=Hold on to your love
TTITLE4=In the Ghetto
TTITLE5=Just once
TTITLE6=Try a little tenderness
TTITLE7=You are so beautiful to me
EXTD=
EXTT0=
EXTT1=
EXTT2=
EXTT3=
EXTT4=
EXTT5=
EXTT6=
EXTT7=
PLAYORDER=
